<?xml version="1.0" standalone="no"?>
<!DOCTYPE svg PUBLIC "-//W3C//DTD SVG 20010904//EN"
 "http://www.w3.org/TR/2001/REC-SVG-20010904/DTD/svg10.dtd">
<svg version="1.0" xmlns="http://www.w3.org/2000/svg"
 width="700.000000pt" height="700.000000pt" viewBox="0 0 700.000000 700.000000"
 preserveAspectRatio="xMidYMid meet">
<metadata>
Created by potrace 1.11, written by Peter Selinger 2001-2013
</metadata>
<g transform="translate(0.000000,700.000000) scale(0.100000,-0.100000)"
fill="#000000" stroke="none">
<path d="M4698 5935 c-2 -1 -55 -5 -118 -9 -257 -13 -408 -25 -530 -41 -19 -2
-62 -7 -95 -10 -93 -9 -176 -20 -345 -46 -36 -6 -78 -12 -94 -14 -33 -5 -190
-32 -226 -40 -14 -3 -72 -14 -130 -25 -58 -11 -114 -22 -125 -24 -11 -3 -54
-12 -95 -21 -153 -32 -450 -107 -600 -151 -85 -25 -162 -47 -171 -49 -67 -14
-638 -212 -734 -255 -11 -5 -45 -19 -75 -31 -30 -12 -69 -28 -87 -35 -17 -8
-34 -14 -37 -14 -4 0 -35 -13 -69 -29 -34 -16 -109 -50 -167 -76 -225 -101
-381 -186 -401 -219 -34 -56 -15 -136 40 -166 53 -28 78 -22 229 51 532 259
1017 442 1592 602 132 37 424 111 475 121 17 3 142 28 279 56 137 27 272 52
300 55 28 3 58 8 66 10 8 3 83 14 165 25 83 12 161 23 175 25 14 2 58 7 99 10
41 4 83 8 93 10 17 4 106 12 205 20 22 2 92 7 155 10 62 4 131 9 153 11 22 2
191 4 375 4 312 1 421 -2 560 -15 30 -2 96 -7 145 -10 50 -3 97 -8 105 -10 8
-2 44 -7 80 -10 36 -4 74 -9 85 -11 11 -2 58 -7 105 -10 83 -6 86 -5 118 23
45 38 56 88 32 142 -11 22 -31 46 -47 55 -28 14 -47 18 -158 31 -27 3 -61 8
-75 10 -14 2 -52 6 -85 10 -33 4 -73 8 -90 10 -16 2 -77 7 -135 10 -58 4 -114
9 -125 12 -21 5 -811 13 -817 8z"/>
<path d="M4747 5043 c-1 0 -85 -4 -185 -8 -101 -3 -191 -8 -201 -10 -9 -2 -59
-6 -111 -10 -94 -7 -107 -8 -205 -19 -27 -3 -72 -8 -100 -11 -47 -5 -95 -11
-155 -20 -42 -6 -354 -57 -370 -60 -8 -2 -64 -13 -125 -25 -60 -12 -177 -38
-260 -57 -82 -19 -157 -36 -165 -38 -160 -35 -562 -159 -819 -252 -141 -51
-443 -173 -499 -202 -74 -39 -101 -85 -87 -151 9 -39 70 -90 110 -90 16 0 122
38 235 84 243 100 398 159 574 215 139 45 414 126 486 142 25 6 52 12 60 15
140 36 563 127 645 138 93 13 133 19 150 22 39 8 71 13 124 19 30 4 61 8 70
10 9 1 48 6 86 10 39 4 79 9 90 11 11 2 61 6 110 10 50 3 101 7 115 9 152 26
907 25 1130 -1 88 -10 159 -5 185 12 66 43 73 141 15 192 -26 23 -54 30 -141
37 -46 4 -96 9 -111 11 -77 9 -643 25 -651 17z"/>
<path d="M4627 4184 c-1 -1 -74 -5 -162 -8 -197 -9 -300 -17 -430 -32 -22 -3
-58 -7 -80 -9 -22 -3 -49 -7 -60 -9 -12 -2 -48 -7 -80 -11 -33 -4 -69 -9 -80
-11 -17 -3 -133 -24 -223 -39 -12 -2 -30 -6 -40 -9 -9 -3 -35 -7 -57 -11 -22
-3 -64 -12 -95 -20 -30 -8 -66 -16 -80 -18 -154 -28 -760 -213 -839 -257 -51
-29 -68 -66 -62 -142 2 -27 57 -75 93 -81 24 -3 86 13 223 58 105 35 238 77
296 94 217 63 603 149 784 176 22 3 65 10 95 15 56 9 106 15 195 25 28 3 66 7
85 10 19 2 71 7 115 11 44 3 98 8 120 11 22 3 196 6 387 7 329 2 348 3 368 21
49 44 59 97 31 156 -22 45 -63 61 -170 66 -101 4 -331 9 -334 7z"/>
<path d="M5669 3961 c-35 -17 -56 -46 -238 -326 -203 -312 -190 -295 -219
-291 -23 4 -57 9 -157 22 -11 2 -54 5 -95 8 -41 4 -97 9 -125 12 -27 3 -149 5
-270 5 -202 0 -276 -3 -407 -16 -155 -16 -145 -15 -403 -51 -22 -3 -42 -7 -45
-9 -3 -2 -21 -6 -40 -9 -66 -10 -136 -25 -250 -51 -63 -15 -122 -28 -130 -30
-157 -36 -569 -179 -739 -256 -24 -11 -51 -19 -60 -16 -9 2 -91 52 -181 112
-91 59 -194 126 -230 149 -36 22 -69 44 -75 48 -10 8 -215 141 -395 258 -47
30 -156 100 -242 157 -86 56 -172 108 -190 116 -62 26 -124 2 -152 -58 -21
-43 -20 -73 3 -111 18 -30 46 -50 246 -179 50 -32 146 -95 215 -140 69 -45
204 -133 300 -195 96 -62 237 -154 313 -203 l138 -90 -60 -33 c-275 -153 -561
-379 -706 -560 -22 -27 -43 -51 -47 -54 -13 -10 -109 -162 -137 -218 -65 -129
-99 -274 -95 -409 10 -406 347 -729 929 -893 55 -16 114 -31 130 -33 17 -3 62
-12 100 -20 39 -8 95 -18 125 -22 30 -4 64 -9 74 -11 20 -4 106 -11 266 -22
151 -11 532 -3 655 13 30 4 193 24 250 30 30 4 78 11 125 20 14 3 41 7 60 11
57 10 184 34 195 38 6 1 37 8 70 15 33 7 94 22 135 32 978 256 1734 733 2013
1271 136 262 131 557 -13 784 -130 206 -383 382 -695 485 -55 18 -104 36 -109
40 -5 4 63 117 149 251 87 134 165 259 173 279 39 99 -63 195 -159 150z m-774
-825 c33 -3 85 -8 115 -12 30 -4 58 -8 63 -8 20 -2 26 7 -328 -536 -71 -110
-177 -273 -235 -362 -58 -89 -123 -189 -145 -222 l-40 -60 -59 -2 c-75 -3
-153 -41 -203 -98 -52 -59 -72 -119 -69 -203 5 -128 82 -231 201 -268 141 -45
297 27 358 164 28 62 27 160 -1 224 l-21 47 44 67 c24 38 102 157 172 265 486
751 598 921 610 925 7 3 71 -14 143 -37 562 -181 788 -506 624 -895 -29 -68
-103 -185 -161 -254 -83 -101 -243 -246 -358 -326 -38 -27 -72 -52 -75 -55
-14 -17 -261 -159 -380 -219 -168 -84 -516 -225 -630 -256 -8 -2 -64 -18 -125
-35 -60 -18 -117 -33 -125 -35 -8 -2 -53 -13 -100 -25 -116 -29 -363 -77 -436
-85 -32 -4 -66 -9 -75 -10 -18 -4 -109 -16 -154 -21 -180 -20 -593 -25 -785
-11 -57 5 -107 10 -110 12 -3 1 -32 5 -65 9 -63 7 -110 14 -135 21 -8 2 -31 7
-50 10 -59 9 -281 73 -350 100 -172 68 -338 172 -423 266 -270 296 -163 683
297 1074 125 107 384 276 538 351 l56 27 259 -168 c142 -92 270 -175 284 -183
23 -14 27 -24 31 -81 14 -185 177 -307 358 -266 222 49 299 327 136 490 -84
84 -186 105 -306 65 l-59 -20 -73 47 c-245 157 -360 235 -354 240 22 22 520
185 632 207 10 2 46 11 80 20 201 52 545 105 794 122 52 4 96 8 98 9 5 5 473
-3 537 -9z m-1519 -857 c23 -25 11 -67 -21 -75 -46 -11 -79 42 -46 75 23 23
47 22 67 0z m942 -601 c16 -16 15 -53 0 -65 -25 -19 -48 -22 -63 -7 -18 19
-20 70 -2 77 22 10 53 7 65 -5z"/>
</g>
</svg>
