<?xml version="1.0" standalone="no"?>
<!DOCTYPE svg PUBLIC "-//W3C//DTD SVG 20010904//EN"
 "http://www.w3.org/TR/2001/REC-SVG-20010904/DTD/svg10.dtd">
<svg version="1.0" xmlns="http://www.w3.org/2000/svg"
 width="1240.000000pt" height="1240.000000pt" viewBox="0 0 1240.000000 1240.000000"
 preserveAspectRatio="xMidYMid meet">
<metadata>
Created by potrace 1.11, written by Peter Selinger 2001-2013
</metadata>
<g transform="translate(0.000000,1240.000000) scale(0.100000,-0.100000)"
fill="#000000" stroke="none">
<path d="M8150 11284 c-800 -31 -1451 -96 -2194 -220 -1544 -256 -3054 -722
-4354 -1344 -402 -192 -528 -266 -623 -366 -168 -178 -242 -366 -243 -614 0
-99 5 -141 22 -203 98 -347 340 -578 680 -649 201 -42 390 -10 615 103 65 33
121 58 124 56 2 -3 0 -31 -6 -63 -6 -32 -11 -77 -11 -101 0 -26 -5 -45 -12
-47 -7 -2 -59 -18 -115 -36 -280 -88 -491 -310 -575 -605 -30 -108 -32 -324
-4 -430 44 -162 119 -295 232 -409 70 -71 158 -131 816 -556 191 -124 347
-227 347 -230 0 -3 -41 -39 -90 -80 -120 -100 -374 -360 -478 -490 -167 -208
-314 -453 -405 -676 -163 -400 -194 -826 -91 -1236 221 -872 1038 -1499 2283
-1753 1183 -240 2656 -124 4062 322 477 151 1008 376 1385 586 876 488 1475
1050 1780 1672 220 446 278 885 178 1335 -121 546 -471 1007 -1013 1335 -52
32 -96 59 -98 60 -1 1 25 46 59 100 113 179 153 310 153 495 -1 260 -91 473
-275 645 -105 99 -250 178 -386 210 -40 10 -73 19 -73 20 0 2 32 22 71 45 80
47 202 159 259 236 76 101 139 255 160 384 30 193 -15 419 -116 582 -20 33
-34 61 -33 63 2 1 33 -2 69 -7 84 -12 228 -3 323 22 338 86 591 366 648 715
16 100 6 268 -21 365 -76 272 -281 492 -547 590 -145 52 -665 118 -1245 155
-216 15 -1055 27 -1258 19z"/>
</g>
</svg>
