<svg xmlns="http://www.w3.org/2000/svg" viewBox="0 0 141.111 141.111">
  <g fill="none" stroke="#202ef7" stroke-linecap="round" stroke-linejoin="round" stroke-width="4.939" transform="translate(-.13 -155.79)">
    <ellipse cx="21.733" cy="-267.665" rx="51.11" ry="24.652" transform="scale(1 -1) rotate(12)"/>
    <path d="M69.399 248.652a3.484 3.484 0 0 0-4.82 1.025 3.484 3.484 0 0 0 1.025 4.82 3.484 3.484 0 0 0 4.82-1.025 3.484 3.484 0 0 0-1.025-4.82zM22.946 222.64l40.68 26.418zm60.607 39.233a3.484 3.484 0 0 1 4.82-1.024 3.484 3.484 0 0 1 1.024 4.82 3.484 3.484 0 0 1-4.82 1.024 3.484 3.484 0 0 1-1.024-4.82zm31.857-42.657l-26.418 40.68zm-13.92-3.999c-10.35-.596-21.7.347-32.944 2.737-6.695 1.423-13.05 3.284-18.934 5.482m62.82-25.056c-14.51-1.552-31.027-.519-47.417 2.965-12.029 2.557-23.187 6.236-33 10.669m91.565-30.81c-18.541-2.832-40.458-1.854-62.255 2.779-17.62 3.745-33.669 9.512-47.097 16.486"/>
  </g>
</svg>
