<svg xmlns="http://www.w3.org/2000/svg" width="140" height="140">
  <g fill="none" fill-rule="evenodd">
    <path fill="#41C1BA" d="M121.54 63.904c7.313 4.08 12.354 9.988 13.992 17.692 4.548 21.397-20.526 40.812-53.34 47.787-32.815 6.975-63.618-.562-68.166-21.96-2.343-11.022 3.174-21.518 13.56-30.059l-12.76-8.287C9.73 65.767 8.281 58.955 11.59 53.86a10.97 10.97 0 0 1 7.294-4.839 11.02 11.02 0 0 1 .375-2.644c-.704.35-1.401.705-2.092 1.064-5.391 2.8-12.032.7-14.832-4.692-2.8-5.392-.7-12.032 4.692-14.832 14.658-7.613 31.708-13.621 49.88-17.484 23.044-4.898 46.288-5.936 66.203-2.893 6.006.918 10.13 6.53 9.213 12.535-.918 6.006-6.53 10.13-12.536 9.213l-.526-.079a10.96 10.96 0 0 1 1.978 7.55 10.994 10.994 0 0 1-6.272 8.795c1.49.23 2.957.772 4.303 1.647 5.095 3.309 6.543 10.122 3.235 15.217l-.965 1.486z"/>
    <path fill="#396D7F" d="M69.14 67.978c28.779-6.117 54.831.258 58.048 15.389 3.216 15.131-17.992 31.551-46.77 37.668-28.78 6.118-54.832-.257-58.048-15.388-3.216-15.132 17.991-31.552 46.77-37.669zm1.027 4.831C43.724 78.43 24.756 93.116 27.2 104.62c2.445 11.504 25.747 17.206 52.19 11.586 26.442-5.621 45.41-20.308 42.966-31.811-2.445-11.504-25.748-17.205-52.19-11.585z"/>
    <path fill="#396D7F" fill-rule="nonzero" d="M64.52 88.231a1.015 1.015 0 1 0 1.703 1.106 1.015 1.015 0 0 0-1.702-1.106zm4.094-4.44a5.954 5.954 0 1 1-6.485 9.986 5.954 5.954 0 0 1 6.485-9.986z"/>
    <path fill="#396D7F" fill-rule="nonzero" d="M19.471 61.92a2.47 2.47 0 0 1 2.69-4.142l40.68 26.418a2.47 2.47 0 1 1-2.69 4.142L19.471 61.92zm64.024 38.508a1.015 1.015 0 1 0 1.702 1.105 1.015 1.015 0 0 0-1.702-1.105zm-.387-5.27a5.954 5.954 0 1 1 2.476 11.646 5.954 5.954 0 0 1-2.476-11.647z"/>
    <path fill="#396D7F" fill-rule="nonzero" d="M111.21 55.08a2.47 2.47 0 1 1 4.141 2.69L88.933 98.45a2.47 2.47 0 1 1-4.142-2.69l26.418-40.68z"/>
    <path fill="#3A7988" fill-rule="nonzero" d="M99.503 49.962a2.47 2.47 0 0 1-.284 4.93c-10.124-.583-21.255.342-32.29 2.687-6.475 1.376-12.718 3.19-18.583 5.38a2.47 2.47 0 0 1-1.728-4.627c6.094-2.276 12.573-4.157 19.285-5.584 11.454-2.434 23.024-3.396 33.6-2.786z"/>
    <path fill="#3C8A94" fill-rule="nonzero" d="M110.564 33.134a2.47 2.47 0 1 1-.525 4.91C95.8 36.523 79.542 37.54 63.4 40.97c-11.621 2.47-22.637 6.05-32.497 10.504a2.47 2.47 0 0 1-2.033-4.501c10.186-4.602 21.54-8.291 33.503-10.834 16.637-3.536 33.414-4.585 48.192-3.005z"/>
    <path fill="#3D959B" fill-rule="nonzero" d="M121.823 15.973a2.47 2.47 0 1 1-.746 4.882c-18.232-2.786-39.851-1.82-61.368 2.753-17.01 3.616-32.914 9.22-46.473 16.262a2.47 2.47 0 0 1-2.276-4.383c13.962-7.251 30.286-13.004 47.722-16.71 22.077-4.693 44.292-5.684 63.14-2.804z"/>
  </g>
</svg>
